<svg xmlns="http://www.w3.org/2000/svg" viewBox="0 0 320 64" role="img" aria-label="Quasar Labs">
  <defs>
    <radialGradient id="ql-core" cx="50%" cy="50%" r="60%">
      <stop offset="0" stop-color="#93c5fd"/><stop offset=".6" stop-color="#cbd5e1"/><stop offset="1" stop-color="#9aa8b6"/>
    </radialGradient>
    <linearGradient id="ql-orbit" x1="0" y1="0" x2="1" y2="1">
      <stop offset="0" stop-color="#e5e7eb"/><stop offset="1" stop-color="#b9c5d1"/>
    </linearGradient>
  </defs>

  <!-- emblem -->
  <g transform="translate(18,8)" fill="none" stroke-linecap="round" stroke-linejoin="round">
    <ellipse cx="22" cy="24" rx="18" ry="8" stroke="url(#ql-orbit)" stroke-width="2"/>
    <ellipse cx="22" cy="24" rx="12" ry="20" transform="rotate(-28 22 24)" stroke="#cbd5e1" stroke-width="1.6" opacity=".8"/>
    <ellipse cx="22" cy="24" rx="20" ry="12" transform="rotate(28 22 24)" stroke="#cbd5e1" stroke-width="1.6" opacity=".6"/>
    <g stroke="#d1d5db" stroke-width="2">
      <path d="M22 3v7M22 38v7M3 24h7M34 24h7M10 12l5 5M29 31l5 5M34 12l-5 5M15 31l-5 5"/>
    </g>
    <circle cx="22" cy="24" r="5" fill="url(#ql-core)"/>
  </g>

  <!-- wordmark (closer) -->
  <text x="76" y="41" fill="#d1d5db"
        font-size="26" font-weight="700"
        font-family="Inter, Segoe UI, Roboto, system-ui, -apple-system, sans-serif"
        letter-spacing=".25">Quasar Labs</text>
</svg>
